<svg width="1280" height="440" viewBox="0 0 1280 440" fill="none" xmlns="http://www.w3.org/2000/svg">
<g clip-path="url(#clip0_1_2)">
<path d="M1280 0H0V440H1280V0Z" fill="#0B1220"/>
<path d="M80 130V242C80 263.217 88.4285 283.566 103.431 298.569C118.434 313.571 138.783 322 160 322C181.217 322 201.566 313.571 216.569 298.569C231.571 283.566 240 263.217 240 242V130" stroke="#E2E8F0" stroke-width="20" stroke-linecap="round" stroke-linejoin="round"/>
<path d="M144 100H80V108H144V100Z" fill="#F59E0B"/>
<path d="M172 152L128 228H160L148 280L200 198H168L172 152Z" fill="#F59E0B"/>
<path d="M355.839 109.364H378.597V179.264C378.597 187.113 376.722 193.98 372.973 199.866C369.259 205.753 364.056 210.343 357.364 213.636C350.671 216.895 342.875 218.524 333.976 218.524C325.041 218.524 317.228 216.895 310.536 213.636C303.843 210.343 298.64 205.753 294.926 199.866C291.212 193.98 289.355 187.113 289.355 179.264V109.364H312.112V177.32C312.112 181.419 313.006 185.063 314.793 188.251C316.615 191.44 319.172 193.945 322.466 195.767C325.759 197.589 329.596 198.5 333.976 198.5C338.391 198.5 342.227 197.589 345.486 195.767C348.779 193.945 351.32 191.44 353.107 188.251C354.929 185.063 355.839 181.419 355.839 177.32V109.364ZM397.32 217V109.364H439.786C447.95 109.364 454.905 110.923 460.651 114.041C466.397 117.125 470.777 121.417 473.79 126.918C476.838 132.384 478.363 138.69 478.363 145.838C478.363 152.986 476.821 159.293 473.738 164.759C470.654 170.224 466.187 174.482 460.336 177.53C454.519 180.578 447.477 182.102 439.208 182.102H412.141V163.865H435.529C439.909 163.865 443.517 163.112 446.355 161.605C449.229 160.063 451.366 157.944 452.767 155.246C454.204 152.513 454.922 149.377 454.922 145.838C454.922 142.264 454.204 139.146 452.767 136.483C451.366 133.785 449.229 131.7 446.355 130.229C443.482 128.722 439.838 127.969 435.424 127.969H420.077V217H397.32ZM589.704 217V136.273H612.093V217H589.704ZM600.951 125.866C597.623 125.866 594.767 124.763 592.385 122.555C590.037 120.313 588.863 117.633 588.863 114.514C588.863 111.431 590.037 108.786 592.385 106.578C594.767 104.336 597.623 103.214 600.951 103.214C604.28 103.214 607.118 104.336 609.466 106.578C611.848 108.786 613.039 111.431 613.039 114.514C613.039 117.633 611.848 120.313 609.466 122.555C607.118 124.763 604.28 125.866 600.951 125.866ZM659.776 218.314C653.644 218.314 648.09 216.737 643.115 213.584C638.175 210.395 634.25 205.718 631.342 199.551C628.469 193.349 627.033 185.746 627.033 176.741C627.033 167.491 628.522 159.801 631.5 153.669C634.478 147.502 638.438 142.895 643.378 139.847C648.353 136.763 653.802 135.222 659.723 135.222C664.243 135.222 668.009 135.992 671.023 137.534C674.071 139.041 676.524 140.933 678.381 143.21C680.273 145.453 681.709 147.66 682.69 149.832H683.374V109.364H705.71V217H683.636V204.071H682.69C681.639 206.313 680.15 208.538 678.223 210.746C676.331 212.918 673.861 214.723 670.812 216.159C667.799 217.596 664.12 218.314 659.776 218.314ZM666.871 200.497C670.48 200.497 673.528 199.516 676.016 197.554C678.538 195.557 680.465 192.771 681.797 189.197C683.163 185.624 683.847 181.437 683.847 176.636C683.847 171.836 683.181 167.667 681.849 164.128C680.518 160.589 678.591 157.856 676.068 155.929C673.545 154.002 670.48 153.038 666.871 153.038C663.192 153.038 660.091 154.037 657.568 156.034C655.045 158.031 653.136 160.799 651.839 164.338C650.543 167.877 649.895 171.976 649.895 176.636C649.895 181.331 650.543 185.483 651.839 189.092C653.171 192.666 655.08 195.469 657.568 197.501C660.091 199.499 663.192 200.497 666.871 200.497ZM760.908 218.577C752.604 218.577 745.456 216.895 739.465 213.531C733.508 210.133 728.918 205.332 725.695 199.131C722.471 192.894 720.86 185.518 720.86 177.004C720.86 168.7 722.471 161.412 725.695 155.141C728.918 148.869 733.456 143.981 739.307 140.477C745.194 136.973 752.096 135.222 760.015 135.222C765.34 135.222 770.298 136.08 774.888 137.797C779.513 139.479 783.542 142.019 786.976 145.418C790.445 148.816 793.143 153.091 795.07 158.241C796.997 163.357 797.961 169.348 797.961 176.216V182.365H729.794V168.49H776.885C776.885 165.267 776.185 162.411 774.783 159.923C773.382 157.436 771.437 155.491 768.949 154.089C766.497 152.653 763.641 151.935 760.382 151.935C756.984 151.935 753.971 152.723 751.343 154.3C748.75 155.841 746.718 157.926 745.246 160.554C743.775 163.147 743.021 166.037 742.986 169.226V182.418C742.986 186.412 743.722 189.863 745.194 192.771C746.7 195.679 748.82 197.922 751.553 199.499C754.286 201.075 757.527 201.864 761.276 201.864C763.764 201.864 766.041 201.513 768.108 200.812C770.176 200.112 771.945 199.061 773.417 197.659C774.888 196.258 776.009 194.541 776.78 192.509L797.488 193.875C796.436 198.85 794.282 203.195 791.023 206.909C787.8 210.588 783.63 213.461 778.515 215.528C773.434 217.561 767.565 218.577 760.908 218.577Z" fill="#F8FAFC"/>
<path d="M551.535 140.32C551.114 136.08 549.31 132.786 546.121 130.439C542.933 128.091 538.606 126.918 533.14 126.918C529.426 126.918 526.29 127.443 523.732 128.494C521.174 129.51 519.212 130.929 517.846 132.751C516.514 134.573 515.849 136.641 515.849 138.953C515.779 140.88 516.182 142.562 517.058 143.999C517.969 145.435 519.212 146.679 520.789 147.73C522.366 148.746 524.188 149.64 526.255 150.411C528.322 151.146 530.53 151.777 532.877 152.303L542.548 154.615C547.243 155.666 551.552 157.068 555.477 158.82C559.401 160.571 562.799 162.726 565.673 165.284C568.546 167.842 570.771 170.855 572.347 174.324C573.959 177.793 574.782 181.769 574.817 186.254C574.782 192.841 573.101 198.553 569.772 203.388C566.478 208.188 561.713 211.92 555.477 214.582C549.275 217.21 541.794 218.524 533.035 218.524C524.345 218.524 516.777 217.193 510.33 214.53C503.918 211.867 498.908 207.925 495.299 202.705C491.725 197.449 489.851 190.949 489.675 183.206H511.697C511.942 186.815 512.976 189.828 514.798 192.246C516.655 194.628 519.125 196.433 522.208 197.659C525.326 198.85 528.848 199.446 532.772 199.446C536.626 199.446 539.972 198.885 542.81 197.764C545.683 196.643 547.908 195.084 549.485 193.087C551.062 191.089 551.85 188.795 551.85 186.202C551.85 183.784 551.132 181.752 549.695 180.105C548.294 178.458 546.227 177.057 543.494 175.901C540.796 174.744 537.485 173.693 533.56 172.747L521.84 169.804C512.765 167.597 505.6 164.145 500.344 159.45C495.089 154.755 492.478 148.431 492.513 140.477C492.478 133.96 494.213 128.267 497.717 123.396C501.255 118.526 506.108 114.724 512.275 111.991C518.442 109.259 525.449 107.892 533.298 107.892C541.286 107.892 548.259 109.259 554.215 111.991C560.207 114.724 564.867 118.526 568.195 123.396C571.524 128.267 573.241 133.908 573.346 140.32H551.535Z" fill="#F59E0B"/>
<path d="M300.96 259.182H303.602V273.628C303.602 275.119 303.251 276.451 302.548 277.623C301.852 278.788 300.868 279.707 299.597 280.382C298.325 281.05 296.834 281.384 295.122 281.384C293.411 281.384 291.919 281.05 290.648 280.382C289.376 279.707 288.389 278.788 287.686 277.623C286.99 276.451 286.642 275.119 286.642 273.628V259.182H289.284V273.415C289.284 274.48 289.518 275.428 289.987 276.259C290.456 277.083 291.124 277.733 291.99 278.209C292.864 278.678 293.908 278.912 295.122 278.912C296.337 278.912 297.381 278.678 298.254 278.209C299.128 277.733 299.795 277.083 300.257 276.259C300.726 275.428 300.96 274.48 300.96 273.415V259.182ZM308.878 281V259.182H316.251C317.962 259.182 319.361 259.491 320.448 260.109C321.542 260.719 322.351 261.547 322.877 262.591C323.403 263.635 323.665 264.8 323.665 266.085C323.665 267.371 323.403 268.539 322.877 269.59C322.358 270.641 321.556 271.479 320.469 272.104C319.383 272.722 317.991 273.031 316.293 273.031H311.009V270.688H316.208C317.38 270.688 318.321 270.485 319.031 270.08C319.741 269.675 320.256 269.129 320.576 268.44C320.903 267.744 321.066 266.959 321.066 266.085C321.066 265.212 320.903 264.43 320.576 263.741C320.256 263.053 319.738 262.513 319.02 262.122C318.303 261.724 317.351 261.526 316.165 261.526H311.52V281H308.878ZM339.853 264.636C339.725 263.557 339.207 262.719 338.298 262.122C337.389 261.526 336.274 261.227 334.953 261.227C333.987 261.227 333.142 261.384 332.417 261.696C331.7 262.009 331.139 262.438 330.734 262.985C330.336 263.532 330.137 264.153 330.137 264.849C330.137 265.432 330.276 265.933 330.553 266.352C330.837 266.763 331.199 267.108 331.639 267.385C332.08 267.655 332.541 267.879 333.024 268.056C333.507 268.227 333.951 268.365 334.356 268.472L336.572 269.068C337.14 269.217 337.772 269.423 338.468 269.686C339.171 269.949 339.843 270.308 340.482 270.762C341.128 271.21 341.661 271.785 342.08 272.488C342.499 273.191 342.708 274.054 342.708 275.077C342.708 276.256 342.399 277.321 341.781 278.273C341.171 279.224 340.276 279.981 339.097 280.542C337.925 281.103 336.501 281.384 334.825 281.384C333.262 281.384 331.909 281.131 330.766 280.627C329.629 280.123 328.735 279.42 328.081 278.518C327.435 277.616 327.069 276.568 326.984 275.375H329.711C329.782 276.199 330.059 276.881 330.542 277.42C331.032 277.953 331.65 278.351 332.396 278.614C333.149 278.869 333.958 278.997 334.825 278.997C335.833 278.997 336.739 278.834 337.541 278.507C338.344 278.173 338.98 277.712 339.448 277.122C339.917 276.526 340.151 275.83 340.151 275.034C340.151 274.31 339.949 273.72 339.544 273.266C339.139 272.811 338.607 272.442 337.946 272.158C337.286 271.874 336.572 271.625 335.805 271.412L333.12 270.645C331.416 270.155 330.066 269.455 329.072 268.546C328.078 267.637 327.58 266.447 327.58 264.977C327.58 263.756 327.911 262.69 328.571 261.781C329.239 260.865 330.134 260.155 331.256 259.651C332.385 259.139 333.646 258.884 335.038 258.884C336.444 258.884 337.694 259.136 338.788 259.64C339.882 260.137 340.748 260.819 341.387 261.685C342.034 262.552 342.374 263.536 342.41 264.636H339.853ZM355.149 281V264.636H357.578V267.193H357.791C358.132 266.32 358.682 265.641 359.442 265.158C360.202 264.668 361.115 264.423 362.18 264.423C363.26 264.423 364.158 264.668 364.875 265.158C365.6 265.641 366.164 266.32 366.569 267.193H366.74C367.159 266.348 367.787 265.677 368.625 265.18C369.463 264.675 370.468 264.423 371.64 264.423C373.103 264.423 374.3 264.881 375.23 265.798C376.161 266.707 376.626 268.124 376.626 270.048V281H374.112V270.048C374.112 268.841 373.782 267.978 373.121 267.46C372.461 266.941 371.683 266.682 370.788 266.682C369.637 266.682 368.746 267.03 368.114 267.726C367.482 268.415 367.166 269.288 367.166 270.347V281H364.609V269.793C364.609 268.862 364.307 268.113 363.703 267.545C363.1 266.969 362.322 266.682 361.37 266.682C360.717 266.682 360.106 266.856 359.538 267.204C358.977 267.552 358.522 268.035 358.174 268.653C357.833 269.263 357.663 269.97 357.663 270.773V281H355.149ZM387.871 281.341C386.393 281.341 385.097 280.989 383.982 280.286C382.874 279.583 382.008 278.599 381.383 277.335C380.765 276.071 380.456 274.594 380.456 272.903C380.456 271.199 380.765 269.711 381.383 268.44C382.008 267.168 382.874 266.181 383.982 265.478C385.097 264.775 386.393 264.423 387.871 264.423C389.348 264.423 390.641 264.775 391.749 265.478C392.864 266.181 393.73 267.168 394.348 268.44C394.973 269.711 395.286 271.199 395.286 272.903C395.286 274.594 394.973 276.071 394.348 277.335C393.73 278.599 392.864 279.583 391.749 280.286C390.641 280.989 389.348 281.341 387.871 281.341ZM387.871 279.082C388.993 279.082 389.916 278.795 390.641 278.219C391.365 277.644 391.901 276.888 392.249 275.95C392.597 275.013 392.771 273.997 392.771 272.903C392.771 271.81 392.597 270.79 392.249 269.846C391.901 268.901 391.365 268.138 390.641 267.555C389.916 266.973 388.993 266.682 387.871 266.682C386.749 266.682 385.825 266.973 385.101 267.555C384.376 268.138 383.84 268.901 383.492 269.846C383.144 270.79 382.97 271.81 382.97 272.903C382.97 273.997 383.144 275.013 383.492 275.95C383.84 276.888 384.376 277.644 385.101 278.219C385.825 278.795 386.749 279.082 387.871 279.082ZM401.638 271.156V281H399.123V264.636H401.552V267.193H401.765C402.149 266.362 402.731 265.695 403.513 265.19C404.294 264.679 405.302 264.423 406.538 264.423C407.646 264.423 408.616 264.651 409.447 265.105C410.278 265.553 410.924 266.234 411.385 267.151C411.847 268.06 412.078 269.21 412.078 270.602V281H409.564V270.773C409.564 269.487 409.23 268.486 408.562 267.768C407.895 267.044 406.979 266.682 405.814 266.682C405.011 266.682 404.294 266.856 403.662 267.204C403.037 267.552 402.543 268.06 402.181 268.727C401.819 269.395 401.638 270.205 401.638 271.156ZM416.672 281V264.636H419.186V281H416.672ZM417.951 261.909C417.461 261.909 417.038 261.742 416.683 261.408C416.335 261.075 416.161 260.673 416.161 260.205C416.161 259.736 416.335 259.335 416.683 259.001C417.038 258.667 417.461 258.5 417.951 258.5C418.441 258.5 418.86 258.667 419.208 259.001C419.563 259.335 419.74 259.736 419.74 260.205C419.74 260.673 419.563 261.075 419.208 261.408C418.86 261.742 418.441 261.909 417.951 261.909ZM430.908 264.636V266.767H422.428V264.636H430.908ZM424.899 260.716H427.414V276.312C427.414 277.023 427.517 277.555 427.722 277.911C427.936 278.259 428.205 278.493 428.532 278.614C428.866 278.727 429.218 278.784 429.587 278.784C429.864 278.784 430.091 278.77 430.269 278.741C430.446 278.706 430.588 278.678 430.695 278.656L431.206 280.915C431.036 280.979 430.798 281.043 430.492 281.107C430.187 281.178 429.8 281.213 429.331 281.213C428.621 281.213 427.925 281.06 427.243 280.755C426.568 280.45 426.007 279.984 425.56 279.359C425.119 278.734 424.899 277.946 424.899 276.994V260.716ZM441.162 281.341C439.684 281.341 438.388 280.989 437.273 280.286C436.165 279.583 435.299 278.599 434.674 277.335C434.056 276.071 433.747 274.594 433.747 272.903C433.747 271.199 434.056 269.711 434.674 268.44C435.299 267.168 436.165 266.181 437.273 265.478C438.388 264.775 439.684 264.423 441.162 264.423C442.639 264.423 443.932 264.775 445.04 265.478C446.155 266.181 447.021 267.168 447.639 268.44C448.264 269.711 448.577 271.199 448.577 272.903C448.577 274.594 448.264 276.071 447.639 277.335C447.021 278.599 446.155 279.583 445.04 280.286C443.932 280.989 442.639 281.341 441.162 281.341ZM441.162 279.082C442.284 279.082 443.207 278.795 443.932 278.219C444.656 277.644 445.192 276.888 445.54 275.95C445.888 275.013 446.062 273.997 446.062 272.903C446.062 271.81 445.888 270.79 445.54 269.846C445.192 268.901 444.656 268.138 443.932 267.555C443.207 266.973 442.284 266.682 441.162 266.682C440.04 266.682 439.116 266.973 438.392 267.555C437.667 268.138 437.131 268.901 436.783 269.846C436.435 270.79 436.261 271.81 436.261 272.903C436.261 273.997 436.435 275.013 436.783 275.95C437.131 276.888 437.667 277.644 438.392 278.219C439.116 278.795 440.04 279.082 441.162 279.082ZM452.414 281V264.636H454.843V267.108H455.014C455.312 266.298 455.852 265.641 456.633 265.137C457.414 264.633 458.295 264.381 459.275 264.381C459.46 264.381 459.691 264.384 459.968 264.391C460.245 264.398 460.454 264.409 460.596 264.423V266.98C460.511 266.959 460.316 266.927 460.01 266.884C459.712 266.835 459.396 266.81 459.062 266.81C458.267 266.81 457.556 266.977 456.931 267.31C456.314 267.637 455.824 268.092 455.461 268.674C455.106 269.249 454.929 269.906 454.929 270.645V281H452.414ZM463.577 281V264.636H466.091V281H463.577ZM464.855 261.909C464.365 261.909 463.942 261.742 463.587 261.408C463.239 261.075 463.065 260.673 463.065 260.205C463.065 259.736 463.239 259.335 463.587 259.001C463.942 258.667 464.365 258.5 464.855 258.5C465.345 258.5 465.764 258.667 466.112 259.001C466.467 259.335 466.645 259.736 466.645 260.205C466.645 260.673 466.467 261.075 466.112 261.408C465.764 261.742 465.345 261.909 464.855 261.909ZM473.21 271.156V281H470.696V264.636H473.125V267.193H473.338C473.721 266.362 474.304 265.695 475.085 265.19C475.866 264.679 476.875 264.423 478.11 264.423C479.218 264.423 480.188 264.651 481.019 265.105C481.85 265.553 482.496 266.234 482.958 267.151C483.419 268.06 483.65 269.21 483.65 270.602V281H481.136V270.773C481.136 269.487 480.802 268.486 480.135 267.768C479.467 267.044 478.551 266.682 477.386 266.682C476.583 266.682 475.866 266.856 475.234 267.204C474.609 267.552 474.115 268.06 473.753 268.727C473.391 269.395 473.21 270.205 473.21 271.156ZM494.85 287.477C493.635 287.477 492.591 287.321 491.718 287.009C490.844 286.703 490.116 286.298 489.534 285.794C488.958 285.297 488.5 284.764 488.159 284.196L490.162 282.79C490.389 283.088 490.677 283.429 491.025 283.812C491.373 284.203 491.849 284.54 492.453 284.825C493.063 285.116 493.862 285.261 494.85 285.261C496.171 285.261 497.261 284.942 498.12 284.303C498.98 283.663 499.409 282.662 499.409 281.298V277.974H499.196C499.012 278.273 498.749 278.642 498.408 279.082C498.074 279.516 497.591 279.903 496.959 280.244C496.334 280.577 495.489 280.744 494.423 280.744C493.102 280.744 491.916 280.432 490.865 279.807C489.821 279.182 488.994 278.273 488.383 277.08C487.779 275.886 487.477 274.437 487.477 272.733C487.477 271.057 487.772 269.597 488.362 268.354C488.951 267.104 489.771 266.138 490.823 265.457C491.874 264.768 493.088 264.423 494.466 264.423C495.531 264.423 496.377 264.601 497.002 264.956C497.634 265.304 498.117 265.702 498.45 266.149C498.791 266.589 499.054 266.952 499.239 267.236H499.494V264.636H501.923V281.469C501.923 282.875 501.604 284.018 500.965 284.899C500.333 285.787 499.48 286.437 498.408 286.849C497.343 287.268 496.156 287.477 494.85 287.477ZM494.764 278.486C495.773 278.486 496.625 278.255 497.321 277.793C498.017 277.332 498.546 276.668 498.909 275.801C499.271 274.935 499.452 273.898 499.452 272.69C499.452 271.511 499.274 270.471 498.919 269.569C498.564 268.667 498.039 267.96 497.343 267.449C496.646 266.937 495.787 266.682 494.764 266.682C493.699 266.682 492.811 266.952 492.101 267.491C491.398 268.031 490.869 268.756 490.514 269.665C490.166 270.574 489.992 271.582 489.992 272.69C489.992 273.827 490.169 274.832 490.524 275.705C490.887 276.572 491.419 277.254 492.122 277.751C492.833 278.241 493.713 278.486 494.764 278.486ZM522.25 264.636V266.767H513.429V264.636H522.25ZM516.071 281V262.378C516.071 261.44 516.291 260.659 516.732 260.034C517.172 259.409 517.744 258.94 518.447 258.628C519.15 258.315 519.892 258.159 520.673 258.159C521.291 258.159 521.796 258.209 522.186 258.308C522.577 258.408 522.868 258.5 523.06 258.585L522.335 260.759C522.208 260.716 522.03 260.663 521.803 260.599C521.583 260.535 521.291 260.503 520.929 260.503C520.098 260.503 519.498 260.712 519.129 261.131C518.767 261.55 518.585 262.165 518.585 262.974V281H516.071ZM531.748 281.341C530.27 281.341 528.974 280.989 527.859 280.286C526.751 279.583 525.885 278.599 525.26 277.335C524.642 276.071 524.333 274.594 524.333 272.903C524.333 271.199 524.642 269.711 525.26 268.44C525.885 267.168 526.751 266.181 527.859 265.478C528.974 264.775 530.27 264.423 531.748 264.423C533.225 264.423 534.518 264.775 535.626 265.478C536.741 266.181 537.607 267.168 538.225 268.44C538.85 269.711 539.162 271.199 539.162 272.903C539.162 274.594 538.85 276.071 538.225 277.335C537.607 278.599 536.741 279.583 535.626 280.286C534.518 280.989 533.225 281.341 531.748 281.341ZM531.748 279.082C532.87 279.082 533.793 278.795 534.518 278.219C535.242 277.644 535.778 276.888 536.126 275.95C536.474 275.013 536.648 273.997 536.648 272.903C536.648 271.81 536.474 270.79 536.126 269.846C535.778 268.901 535.242 268.138 534.518 267.555C533.793 266.973 532.87 266.682 531.748 266.682C530.626 266.682 529.702 266.973 528.978 267.555C528.253 268.138 527.717 268.901 527.369 269.846C527.021 270.79 526.847 271.81 526.847 272.903C526.847 273.997 527.021 275.013 527.369 275.95C527.717 276.888 528.253 277.644 528.978 278.219C529.702 278.795 530.626 279.082 531.748 279.082ZM543 281V264.636H545.429V267.108H545.6C545.898 266.298 546.438 265.641 547.219 265.137C548 264.633 548.881 264.381 549.861 264.381C550.046 264.381 550.277 264.384 550.554 264.391C550.831 264.398 551.04 264.409 551.182 264.423V266.98C551.097 266.959 550.902 266.927 550.596 266.884C550.298 266.835 549.982 266.81 549.648 266.81C548.853 266.81 548.142 266.977 547.517 267.31C546.9 267.637 546.409 268.092 546.047 268.674C545.692 269.249 545.515 269.906 545.515 270.645V281H543ZM580.498 266H577.856C577.699 265.24 577.426 264.572 577.035 263.997C576.652 263.422 576.183 262.939 575.629 262.548C575.082 262.151 574.475 261.852 573.807 261.653C573.14 261.455 572.444 261.355 571.719 261.355C570.398 261.355 569.202 261.689 568.129 262.357C567.064 263.024 566.215 264.008 565.583 265.308C564.958 266.607 564.645 268.202 564.645 270.091C564.645 271.98 564.958 273.575 565.583 274.874C566.215 276.174 567.064 277.158 568.129 277.825C569.202 278.493 570.398 278.827 571.719 278.827C572.444 278.827 573.14 278.727 573.807 278.528C574.475 278.33 575.082 278.035 575.629 277.644C576.183 277.246 576.652 276.76 577.035 276.185C577.426 275.602 577.699 274.935 577.856 274.182H580.498C580.299 275.297 579.937 276.295 579.411 277.175C578.885 278.056 578.232 278.805 577.451 279.423C576.67 280.034 575.792 280.499 574.819 280.819C573.854 281.138 572.82 281.298 571.719 281.298C569.858 281.298 568.204 280.844 566.755 279.935C565.306 279.026 564.166 277.733 563.335 276.057C562.504 274.381 562.089 272.392 562.089 270.091C562.089 267.79 562.504 265.801 563.335 264.125C564.166 262.449 565.306 261.156 566.755 260.247C568.204 259.338 569.858 258.884 571.719 258.884C572.82 258.884 573.854 259.043 574.819 259.363C575.792 259.683 576.67 260.151 577.451 260.769C578.232 261.38 578.885 262.126 579.411 263.006C579.937 263.88 580.299 264.878 580.498 266ZM591.074 281.341C589.597 281.341 588.3 280.989 587.185 280.286C586.077 279.583 585.211 278.599 584.586 277.335C583.968 276.071 583.659 274.594 583.659 272.903C583.659 271.199 583.968 269.711 584.586 268.44C585.211 267.168 586.077 266.181 587.185 265.478C588.3 264.775 589.597 264.423 591.074 264.423C592.551 264.423 593.844 264.775 594.952 265.478C596.067 266.181 596.933 267.168 597.551 268.44C598.176 269.711 598.489 271.199 598.489 272.903C598.489 274.594 598.176 276.071 597.551 277.335C596.933 278.599 596.067 279.583 594.952 280.286C593.844 280.989 592.551 281.341 591.074 281.341ZM591.074 279.082C592.196 279.082 593.119 278.795 593.844 278.219C594.568 277.644 595.104 276.888 595.452 275.95C595.8 275.013 595.974 273.997 595.974 272.903C595.974 271.81 595.8 270.79 595.452 269.846C595.104 268.901 594.568 268.138 593.844 267.555C593.119 266.973 592.196 266.682 591.074 266.682C589.952 266.682 589.028 266.973 588.304 267.555C587.58 268.138 587.043 268.901 586.695 269.846C586.347 270.79 586.173 271.81 586.173 272.903C586.173 273.997 586.347 275.013 586.695 275.95C587.043 276.888 587.58 277.644 588.304 278.219C589.028 278.795 589.952 279.082 591.074 279.082ZM608.974 281.341C607.44 281.341 606.119 280.979 605.011 280.254C603.903 279.53 603.051 278.532 602.454 277.261C601.858 275.989 601.559 274.537 601.559 272.903C601.559 271.241 601.865 269.775 602.476 268.504C603.094 267.225 603.953 266.227 605.054 265.51C606.162 264.786 607.454 264.423 608.932 264.423C610.082 264.423 611.119 264.636 612.042 265.062C612.966 265.489 613.722 266.085 614.312 266.852C614.901 267.619 615.267 268.514 615.409 269.537H612.895C612.703 268.791 612.277 268.131 611.616 267.555C610.963 266.973 610.082 266.682 608.974 266.682C607.994 266.682 607.135 266.937 606.396 267.449C605.665 267.953 605.093 268.667 604.681 269.59C604.276 270.506 604.074 271.582 604.074 272.818C604.074 274.082 604.273 275.183 604.67 276.121C605.075 277.058 605.643 277.786 606.375 278.305C607.113 278.823 607.98 279.082 608.974 279.082C609.628 279.082 610.221 278.969 610.753 278.741C611.286 278.514 611.737 278.188 612.106 277.761C612.476 277.335 612.738 276.824 612.895 276.227H615.409C615.267 277.193 614.915 278.063 614.354 278.837C613.8 279.604 613.065 280.215 612.149 280.67C611.24 281.117 610.182 281.341 608.974 281.341ZM621.428 275.034L621.385 271.923H621.897L629.056 264.636H632.167L624.539 272.349H624.326L621.428 275.034ZM619.084 281V259.182H621.599V281H619.084ZM629.482 281L623.09 272.903L624.88 271.156L632.678 281H629.482ZM635.403 287.136V264.636H637.832V267.236H638.13C638.315 266.952 638.57 266.589 638.897 266.149C639.231 265.702 639.707 265.304 640.325 264.956C640.95 264.601 641.795 264.423 642.86 264.423C644.238 264.423 645.452 264.768 646.504 265.457C647.555 266.146 648.375 267.122 648.964 268.386C649.554 269.651 649.849 271.142 649.849 272.861C649.849 274.594 649.554 276.096 648.964 277.367C648.375 278.631 647.558 279.612 646.514 280.308C645.47 280.996 644.266 281.341 642.903 281.341C641.852 281.341 641.01 281.167 640.378 280.819C639.746 280.464 639.259 280.062 638.918 279.615C638.577 279.161 638.315 278.784 638.13 278.486H637.917V287.136H635.403ZM637.874 272.818C637.874 274.054 638.055 275.144 638.418 276.089C638.78 277.026 639.309 277.761 640.005 278.294C640.701 278.82 641.553 279.082 642.562 279.082C643.613 279.082 644.49 278.805 645.193 278.251C645.903 277.69 646.436 276.937 646.791 275.993C647.153 275.041 647.335 273.983 647.335 272.818C647.335 271.668 647.157 270.631 646.802 269.707C646.454 268.777 645.925 268.042 645.214 267.502C644.511 266.955 643.627 266.682 642.562 266.682C641.539 266.682 640.68 266.941 639.984 267.46C639.288 267.971 638.762 268.688 638.407 269.612C638.052 270.528 637.874 271.597 637.874 272.818ZM653.684 281V264.636H656.198V281H653.684ZM654.962 261.909C654.472 261.909 654.05 261.742 653.695 261.408C653.347 261.075 653.173 260.673 653.173 260.205C653.173 259.736 653.347 259.335 653.695 259.001C654.05 258.667 654.472 258.5 654.962 258.5C655.452 258.5 655.871 258.667 656.219 259.001C656.575 259.335 656.752 259.736 656.752 260.205C656.752 260.673 656.575 261.075 656.219 261.408C655.871 261.742 655.452 261.909 654.962 261.909ZM667.92 264.636V266.767H659.439V264.636H667.92ZM661.911 260.716H664.425V276.312C664.425 277.023 664.528 277.555 664.734 277.911C664.947 278.259 665.217 278.493 665.544 278.614C665.878 278.727 666.229 278.784 666.599 278.784C666.876 278.784 667.103 278.77 667.28 278.741C667.458 278.706 667.6 278.678 667.706 278.656L668.218 280.915C668.047 280.979 667.809 281.043 667.504 281.107C667.199 281.178 666.812 281.213 666.343 281.213C665.633 281.213 664.937 281.06 664.255 280.755C663.58 280.45 663.019 279.984 662.572 279.359C662.131 278.734 661.911 277.946 661.911 276.994V260.716ZM675.452 278.017L675.281 279.168C675.16 279.977 674.976 280.844 674.727 281.767C674.486 282.69 674.233 283.56 673.971 284.377C673.708 285.194 673.491 285.844 673.321 286.327H671.403C671.496 285.872 671.616 285.272 671.765 284.526C671.915 283.781 672.064 282.946 672.213 282.023C672.369 281.107 672.497 280.169 672.596 279.21L672.724 278.017H675.452ZM688.547 287.136V264.636H690.976V267.236H691.275C691.459 266.952 691.715 266.589 692.042 266.149C692.375 265.702 692.851 265.304 693.469 264.956C694.094 264.601 694.939 264.423 696.005 264.423C697.382 264.423 698.597 264.768 699.648 265.457C700.699 266.146 701.52 267.122 702.109 268.386C702.699 269.651 702.993 271.142 702.993 272.861C702.993 274.594 702.699 276.096 702.109 277.367C701.52 278.631 700.703 279.612 699.659 280.308C698.615 280.996 697.411 281.341 696.047 281.341C694.996 281.341 694.154 281.167 693.522 280.819C692.89 280.464 692.404 280.062 692.063 279.615C691.722 279.161 691.459 278.784 691.275 278.486H691.061V287.136H688.547ZM691.019 272.818C691.019 274.054 691.2 275.144 691.562 276.089C691.924 277.026 692.453 277.761 693.15 278.294C693.846 278.82 694.698 279.082 695.706 279.082C696.757 279.082 697.635 278.805 698.338 278.251C699.048 277.69 699.581 276.937 699.936 275.993C700.298 275.041 700.479 273.983 700.479 272.818C700.479 271.668 700.301 270.631 699.946 269.707C699.598 268.777 699.069 268.042 698.359 267.502C697.656 266.955 696.772 266.682 695.706 266.682C694.684 266.682 693.824 266.941 693.128 267.46C692.432 267.971 691.907 268.688 691.551 269.612C691.196 270.528 691.019 271.597 691.019 272.818ZM713.476 281.341C711.999 281.341 710.703 280.989 709.588 280.286C708.48 279.583 707.613 278.599 706.988 277.335C706.37 276.071 706.061 274.594 706.061 272.903C706.061 271.199 706.37 269.711 706.988 268.44C707.613 267.168 708.48 266.181 709.588 265.478C710.703 264.775 711.999 264.423 713.476 264.423C714.953 264.423 716.246 264.775 717.354 265.478C718.469 266.181 719.336 267.168 719.953 268.44C720.578 269.711 720.891 271.199 720.891 272.903C720.891 274.594 720.578 276.071 719.953 277.335C719.336 278.599 718.469 279.583 717.354 280.286C716.246 280.989 714.953 281.341 713.476 281.341ZM713.476 279.082C714.598 279.082 715.522 278.795 716.246 278.219C716.971 277.644 717.507 276.888 717.855 275.95C718.203 275.013 718.377 273.997 718.377 272.903C718.377 271.81 718.203 270.79 717.855 269.846C717.507 268.901 716.971 268.138 716.246 267.555C715.522 266.973 714.598 266.682 713.476 266.682C712.354 266.682 711.431 266.973 710.706 267.555C709.982 268.138 709.446 268.901 709.098 269.846C708.75 270.79 708.576 271.81 708.576 272.903C708.576 273.997 708.75 275.013 709.098 275.95C709.446 276.888 709.982 277.644 710.706 278.219C711.431 278.795 712.354 279.082 713.476 279.082ZM727.88 281L722.894 264.636H725.536L729.073 277.165H729.243L732.738 264.636H735.422L738.874 277.122H739.044L742.581 264.636H745.223L740.238 281H737.766L734.186 268.429H733.931L730.351 281H727.88ZM754.851 281.341C753.275 281.341 751.915 280.993 750.771 280.297C749.635 279.594 748.758 278.614 748.14 277.357C747.529 276.092 747.224 274.622 747.224 272.946C747.224 271.27 747.529 269.793 748.14 268.514C748.758 267.229 749.617 266.227 750.718 265.51C751.826 264.786 753.118 264.423 754.596 264.423C755.448 264.423 756.29 264.565 757.121 264.849C757.952 265.134 758.708 265.595 759.39 266.234C760.072 266.866 760.615 267.705 761.02 268.749C761.425 269.793 761.627 271.078 761.627 272.605V273.67H749.013V271.497H759.07C759.07 270.574 758.885 269.75 758.516 269.026C758.154 268.301 757.635 267.729 756.961 267.31C756.293 266.891 755.505 266.682 754.596 266.682C753.594 266.682 752.728 266.93 751.996 267.428C751.272 267.918 750.714 268.557 750.324 269.345C749.933 270.134 749.738 270.979 749.738 271.881V273.33C749.738 274.565 749.951 275.613 750.377 276.472C750.81 277.325 751.41 277.974 752.177 278.422C752.944 278.862 753.836 279.082 754.851 279.082C755.512 279.082 756.108 278.99 756.641 278.805C757.181 278.614 757.646 278.33 758.037 277.953C758.427 277.57 758.729 277.094 758.942 276.526L761.371 277.207C761.116 278.031 760.686 278.756 760.082 279.381C759.479 279.999 758.733 280.482 757.845 280.83C756.957 281.17 755.959 281.341 754.851 281.341ZM765.452 281V264.636H767.881V267.108H768.051C768.349 266.298 768.889 265.641 769.67 265.137C770.452 264.633 771.332 264.381 772.312 264.381C772.497 264.381 772.728 264.384 773.005 264.391C773.282 264.398 773.491 264.409 773.633 264.423V266.98C773.548 266.959 773.353 266.927 773.047 266.884C772.749 266.835 772.433 266.81 772.099 266.81C771.304 266.81 770.594 266.977 769.969 267.31C769.351 267.637 768.861 268.092 768.498 268.674C768.143 269.249 767.966 269.906 767.966 270.645V281H765.452ZM782.976 281.341C781.4 281.341 780.04 280.993 778.896 280.297C777.76 279.594 776.883 278.614 776.265 277.357C775.654 276.092 775.349 274.622 775.349 272.946C775.349 271.27 775.654 269.793 776.265 268.514C776.883 267.229 777.742 266.227 778.843 265.51C779.951 264.786 781.243 264.423 782.721 264.423C783.573 264.423 784.415 264.565 785.246 264.849C786.077 265.134 786.833 265.595 787.515 266.234C788.197 266.866 788.74 267.705 789.145 268.749C789.55 269.793 789.752 271.078 789.752 272.605V273.67H777.138V271.497H787.195C787.195 270.574 787.01 269.75 786.641 269.026C786.279 268.301 785.76 267.729 785.086 267.31C784.418 266.891 783.63 266.682 782.721 266.682C781.719 266.682 780.853 266.93 780.121 267.428C779.397 267.918 778.839 268.557 778.449 269.345C778.058 270.134 777.863 270.979 777.863 271.881V273.33C777.863 274.565 778.076 275.613 778.502 276.472C778.935 277.325 779.535 277.974 780.302 278.422C781.069 278.862 781.961 279.082 782.976 279.082C783.637 279.082 784.233 278.99 784.766 278.805C785.306 278.614 785.771 278.33 786.162 277.953C786.552 277.57 786.854 277.094 787.067 276.526L789.496 277.207C789.241 278.031 788.811 278.756 788.207 279.381C787.604 279.999 786.858 280.482 785.97 280.83C785.082 281.17 784.084 281.341 782.976 281.341ZM799.756 281.341C798.392 281.341 797.188 280.996 796.144 280.308C795.1 279.612 794.283 278.631 793.694 277.367C793.104 276.096 792.809 274.594 792.809 272.861C792.809 271.142 793.104 269.651 793.694 268.386C794.283 267.122 795.104 266.146 796.155 265.457C797.206 264.768 798.42 264.423 799.798 264.423C800.863 264.423 801.705 264.601 802.323 264.956C802.948 265.304 803.424 265.702 803.751 266.149C804.084 266.589 804.344 266.952 804.528 267.236H804.741V259.182H807.256V281H804.827V278.486H804.528C804.344 278.784 804.081 279.161 803.74 279.615C803.399 280.062 802.912 280.464 802.28 280.819C801.648 281.167 800.807 281.341 799.756 281.341ZM800.096 279.082C801.105 279.082 801.957 278.82 802.653 278.294C803.349 277.761 803.878 277.026 804.241 276.089C804.603 275.144 804.784 274.054 804.784 272.818C804.784 271.597 804.606 270.528 804.251 269.612C803.896 268.688 803.371 267.971 802.675 267.46C801.979 266.941 801.119 266.682 800.096 266.682C799.031 266.682 798.143 266.955 797.433 267.502C796.73 268.042 796.201 268.777 795.846 269.707C795.498 270.631 795.324 271.668 795.324 272.818C795.324 273.983 795.501 275.041 795.856 275.993C796.219 276.937 796.751 277.69 797.454 278.251C798.165 278.805 799.045 279.082 800.096 279.082ZM820.988 281V259.182H823.502V267.236H823.715C823.9 266.952 824.155 266.589 824.482 266.149C824.816 265.702 825.292 265.304 825.91 264.956C826.535 264.601 827.38 264.423 828.445 264.423C829.823 264.423 831.037 264.768 832.089 265.457C833.14 266.146 833.96 267.122 834.55 268.386C835.139 269.651 835.434 271.142 835.434 272.861C835.434 274.594 835.139 276.096 834.55 277.367C833.96 278.631 833.143 279.612 832.099 280.308C831.055 280.996 829.851 281.341 828.488 281.341C827.437 281.341 826.595 281.167 825.963 280.819C825.331 280.464 824.844 280.062 824.503 279.615C824.162 279.161 823.9 278.784 823.715 278.486H823.417V281H820.988ZM823.459 272.818C823.459 274.054 823.64 275.144 824.003 276.089C824.365 277.026 824.894 277.761 825.59 278.294C826.286 278.82 827.138 279.082 828.147 279.082C829.198 279.082 830.075 278.805 830.778 278.251C831.488 277.69 832.021 276.937 832.376 275.993C832.738 275.041 832.92 273.983 832.92 272.818C832.92 271.668 832.742 270.631 832.387 269.707C832.039 268.777 831.51 268.042 830.8 267.502C830.096 266.955 829.212 266.682 828.147 266.682C827.124 266.682 826.265 266.941 825.569 267.46C824.873 267.971 824.347 268.688 823.992 269.612C823.637 270.528 823.459 271.597 823.459 272.818ZM840.313 287.136C839.887 287.136 839.507 287.101 839.173 287.03C838.839 286.966 838.608 286.902 838.481 286.838L839.12 284.622C839.731 284.778 840.27 284.835 840.739 284.793C841.208 284.75 841.623 284.54 841.986 284.164C842.355 283.795 842.692 283.195 842.998 282.364L843.466 281.085L837.415 264.636H840.143L844.66 277.676H844.83L849.347 264.636H852.074L845.128 283.386C844.816 284.232 844.429 284.931 843.967 285.485C843.506 286.046 842.969 286.462 842.358 286.732C841.755 287.001 841.073 287.136 840.313 287.136ZM881.472 259.182V281H878.916L867.026 263.869H866.813V281H864.171V259.182H866.728L878.66 276.355H878.873V259.182H881.472ZM901.077 259.182H903.719V273.628C903.719 275.119 903.368 276.451 902.665 277.623C901.969 278.788 900.985 279.707 899.714 280.382C898.442 281.05 896.951 281.384 895.239 281.384C893.528 281.384 892.036 281.05 890.765 280.382C889.494 279.707 888.506 278.788 887.803 277.623C887.107 276.451 886.759 275.119 886.759 273.628V259.182H889.401V273.415C889.401 274.48 889.636 275.428 890.104 276.259C890.573 277.083 891.241 277.733 892.107 278.209C892.981 278.678 894.025 278.912 895.239 278.912C896.454 278.912 897.498 278.678 898.371 278.209C899.245 277.733 899.913 277.083 900.374 276.259C900.843 275.428 901.077 274.48 901.077 273.415V259.182ZM907.802 261.526V259.182H924.166V261.526H917.305V281H914.663V261.526H907.802Z" fill="#94A3B8"/>
<path d="M85.9659 389.227C84.9432 389.227 84.0625 388.986 83.3239 388.503C82.5852 388.02 82.017 387.355 81.6193 386.507C81.2216 385.66 81.0227 384.691 81.0227 383.602C81.0227 382.494 81.2263 381.517 81.6335 380.669C82.0455 379.817 82.6184 379.152 83.3523 378.673C84.0909 378.19 84.9527 377.949 85.9375 377.949C86.7045 377.949 87.3958 378.091 88.0114 378.375C88.6269 378.659 89.1312 379.057 89.5241 379.568C89.9171 380.08 90.161 380.676 90.2557 381.358H88.5795C88.4517 380.861 88.1676 380.42 87.7273 380.037C87.2917 379.649 86.7045 379.455 85.9659 379.455C85.3125 379.455 84.7396 379.625 84.2472 379.966C83.7595 380.302 83.3783 380.778 83.1037 381.393C82.8338 382.004 82.6989 382.722 82.6989 383.545C82.6989 384.388 82.8314 385.122 83.0966 385.747C83.3665 386.372 83.7453 386.857 84.233 387.203C84.7254 387.549 85.303 387.722 85.9659 387.722C86.4015 387.722 86.7969 387.646 87.152 387.494C87.5071 387.343 87.8078 387.125 88.054 386.841C88.3002 386.557 88.4754 386.216 88.5795 385.818H90.2557C90.161 386.462 89.9266 387.042 89.5526 387.558C89.1832 388.07 88.6932 388.477 88.0824 388.78C87.4763 389.078 86.7708 389.227 85.9659 389.227ZM97.1378 389.227C96.1529 389.227 95.2888 388.993 94.5455 388.524C93.8068 388.055 93.2292 387.4 92.8125 386.557C92.4006 385.714 92.1946 384.729 92.1946 383.602C92.1946 382.466 92.4006 381.474 92.8125 380.626C93.2292 379.779 93.8068 379.121 94.5455 378.652C95.2888 378.183 96.1529 377.949 97.1378 377.949C98.1226 377.949 98.9844 378.183 99.723 378.652C100.466 379.121 101.044 379.779 101.456 380.626C101.873 381.474 102.081 382.466 102.081 383.602C102.081 384.729 101.873 385.714 101.456 386.557C101.044 387.4 100.466 388.055 99.723 388.524C98.9844 388.993 98.1226 389.227 97.1378 389.227ZM97.1378 387.722C97.8859 387.722 98.5014 387.53 98.9844 387.146C99.4673 386.763 99.8248 386.259 100.057 385.634C100.289 385.009 100.405 384.331 100.405 383.602C100.405 382.873 100.289 382.194 100.057 381.564C99.8248 380.934 99.4673 380.425 98.9844 380.037C98.5014 379.649 97.8859 379.455 97.1378 379.455C96.3897 379.455 95.7741 379.649 95.2912 380.037C94.8082 380.425 94.4508 380.934 94.2188 381.564C93.9867 382.194 93.8707 382.873 93.8707 383.602C93.8707 384.331 93.9867 385.009 94.2188 385.634C94.4508 386.259 94.8082 386.763 95.2912 387.146C95.7741 387.53 96.3897 387.722 97.1378 387.722ZM109.071 389.227C108.049 389.227 107.168 388.986 106.429 388.503C105.691 388.02 105.123 387.355 104.725 386.507C104.327 385.66 104.128 384.691 104.128 383.602C104.128 382.494 104.332 381.517 104.739 380.669C105.151 379.817 105.724 379.152 106.458 378.673C107.196 378.19 108.058 377.949 109.043 377.949C109.81 377.949 110.501 378.091 111.117 378.375C111.732 378.659 112.237 379.057 112.63 379.568C113.023 380.08 113.266 380.676 113.361 381.358H111.685C111.557 380.861 111.273 380.42 110.833 380.037C110.397 379.649 109.81 379.455 109.071 379.455C108.418 379.455 107.845 379.625 107.353 379.966C106.865 380.302 106.484 380.778 106.209 381.393C105.939 382.004 105.804 382.722 105.804 383.545C105.804 384.388 105.937 385.122 106.202 385.747C106.472 386.372 106.851 386.857 107.338 387.203C107.831 387.549 108.408 387.722 109.071 387.722C109.507 387.722 109.902 387.646 110.257 387.494C110.613 387.343 110.913 387.125 111.159 386.841C111.406 386.557 111.581 386.216 111.685 385.818H113.361C113.266 386.462 113.032 387.042 112.658 387.558C112.289 388.07 111.799 388.477 111.188 388.78C110.582 389.078 109.876 389.227 109.071 389.227ZM117.374 385.023L117.346 382.949H117.686L122.459 378.091H124.533L119.448 383.233H119.306L117.374 385.023ZM115.811 389V374.455H117.488V389H115.811ZM122.743 389L118.482 383.602L119.675 382.438L124.874 389H122.743ZM126.69 393.091V378.091H128.31V379.824H128.509C128.632 379.634 128.802 379.393 129.02 379.099C129.242 378.801 129.56 378.536 129.972 378.304C130.388 378.067 130.952 377.949 131.662 377.949C132.58 377.949 133.39 378.179 134.091 378.638C134.792 379.097 135.339 379.748 135.732 380.591C136.125 381.434 136.321 382.428 136.321 383.574C136.321 384.729 136.125 385.731 135.732 386.578C135.339 387.421 134.794 388.074 134.098 388.538C133.402 388.998 132.599 389.227 131.69 389.227C130.99 389.227 130.429 389.111 130.007 388.879C129.586 388.643 129.261 388.375 129.034 388.077C128.807 387.774 128.632 387.523 128.509 387.324H128.366V393.091H126.69ZM128.338 383.545C128.338 384.369 128.459 385.096 128.7 385.726C128.942 386.351 129.295 386.841 129.759 387.196C130.223 387.546 130.791 387.722 131.463 387.722C132.164 387.722 132.749 387.537 133.217 387.168C133.691 386.794 134.046 386.292 134.283 385.662C134.524 385.027 134.645 384.322 134.645 383.545C134.645 382.778 134.527 382.087 134.29 381.472C134.058 380.851 133.705 380.361 133.232 380.001C132.763 379.637 132.173 379.455 131.463 379.455C130.781 379.455 130.208 379.627 129.744 379.973C129.28 380.314 128.93 380.792 128.693 381.408C128.456 382.018 128.338 382.731 128.338 383.545ZM138.878 389V378.091H140.554V389H138.878ZM139.73 376.273C139.403 376.273 139.122 376.161 138.885 375.939C138.653 375.716 138.537 375.449 138.537 375.136C138.537 374.824 138.653 374.556 138.885 374.334C139.122 374.111 139.403 374 139.73 374C140.057 374 140.336 374.111 140.568 374.334C140.805 374.556 140.923 374.824 140.923 375.136C140.923 375.449 140.805 375.716 140.568 375.939C140.336 376.161 140.057 376.273 139.73 376.273ZM148.368 378.091V379.511H142.715V378.091H148.368ZM144.363 375.477H146.039V385.875C146.039 386.348 146.107 386.704 146.245 386.94C146.387 387.172 146.567 387.329 146.784 387.409C147.007 387.485 147.241 387.523 147.488 387.523C147.672 387.523 147.824 387.513 147.942 387.494C148.06 387.471 148.155 387.452 148.226 387.438L148.567 388.943C148.453 388.986 148.295 389.028 148.091 389.071C147.888 389.118 147.63 389.142 147.317 389.142C146.844 389.142 146.38 389.04 145.925 388.837C145.475 388.633 145.101 388.323 144.803 387.906C144.509 387.49 144.363 386.964 144.363 386.33V375.477ZM156.749 381.983V383.545H150.385V381.983H156.749ZM166.573 384.54V378.091H168.249V389H166.573V387.153H166.46C166.204 387.707 165.806 388.179 165.266 388.567C164.727 388.95 164.045 389.142 163.221 389.142C162.539 389.142 161.933 388.993 161.403 388.695C160.872 388.392 160.456 387.937 160.153 387.331C159.85 386.72 159.698 385.951 159.698 385.023V378.091H161.374V384.909C161.374 385.705 161.597 386.339 162.042 386.812C162.492 387.286 163.065 387.523 163.761 387.523C164.177 387.523 164.601 387.416 165.032 387.203C165.468 386.99 165.832 386.663 166.126 386.223C166.424 385.783 166.573 385.222 166.573 384.54ZM171.319 393.091V378.091H172.939V379.824H173.137C173.261 379.634 173.431 379.393 173.649 379.099C173.871 378.801 174.189 378.536 174.6 378.304C175.017 378.067 175.581 377.949 176.291 377.949C177.209 377.949 178.019 378.179 178.72 378.638C179.421 379.097 179.967 379.748 180.36 380.591C180.753 381.434 180.95 382.428 180.95 383.574C180.95 384.729 180.753 385.731 180.36 386.578C179.967 387.421 179.423 388.074 178.727 388.538C178.031 388.998 177.228 389.227 176.319 389.227C175.618 389.227 175.057 389.111 174.636 388.879C174.215 388.643 173.89 388.375 173.663 388.077C173.436 387.774 173.261 387.523 173.137 387.324H172.995V393.091H171.319ZM172.967 383.545C172.967 384.369 173.088 385.096 173.329 385.726C173.571 386.351 173.923 386.841 174.387 387.196C174.851 387.546 175.42 387.722 176.092 387.722C176.793 387.722 177.377 387.537 177.846 387.168C178.32 386.794 178.675 386.292 178.912 385.662C179.153 385.027 179.274 384.322 179.274 383.545C179.274 382.778 179.155 382.087 178.919 381.472C178.687 380.851 178.334 380.361 177.86 380.001C177.392 379.637 176.802 379.455 176.092 379.455C175.41 379.455 174.837 379.627 174.373 379.973C173.909 380.314 173.559 380.792 173.322 381.408C173.085 382.018 172.967 382.731 172.967 383.545ZM191.234 380.534L189.728 380.96C189.634 380.709 189.494 380.465 189.309 380.229C189.129 379.987 188.883 379.788 188.571 379.632C188.258 379.476 187.858 379.398 187.37 379.398C186.703 379.398 186.146 379.552 185.701 379.859C185.261 380.162 185.041 380.548 185.041 381.017C185.041 381.434 185.192 381.763 185.495 382.004C185.798 382.246 186.272 382.447 186.916 382.608L188.535 383.006C189.511 383.242 190.237 383.605 190.716 384.092C191.194 384.575 191.433 385.198 191.433 385.96C191.433 386.585 191.253 387.144 190.893 387.636C190.538 388.129 190.041 388.517 189.402 388.801C188.762 389.085 188.019 389.227 187.172 389.227C186.059 389.227 185.138 388.986 184.409 388.503C183.68 388.02 183.218 387.314 183.024 386.386L184.615 385.989C184.766 386.576 185.053 387.016 185.474 387.31C185.9 387.603 186.457 387.75 187.143 387.75C187.924 387.75 188.545 387.584 189.004 387.253C189.468 386.917 189.7 386.514 189.7 386.045C189.7 385.667 189.567 385.349 189.302 385.094C189.037 384.833 188.63 384.639 188.081 384.511L186.262 384.085C185.263 383.848 184.529 383.482 184.061 382.984C183.597 382.482 183.365 381.855 183.365 381.102C183.365 380.487 183.538 379.942 183.883 379.469C184.234 378.995 184.709 378.624 185.311 378.354C185.917 378.084 186.603 377.949 187.37 377.949C188.45 377.949 189.297 378.186 189.913 378.659C190.533 379.133 190.974 379.758 191.234 380.534ZM193.956 389V378.091H195.632V389H193.956ZM194.808 376.273C194.482 376.273 194.2 376.161 193.963 375.939C193.731 375.716 193.615 375.449 193.615 375.136C193.615 374.824 193.731 374.556 193.963 374.334C194.2 374.111 194.482 374 194.808 374C195.135 374 195.414 374.111 195.646 374.334C195.883 374.556 196.001 374.824 196.001 375.136C196.001 375.449 195.883 375.716 195.646 375.939C195.414 376.161 195.135 376.273 194.808 376.273ZM202.821 389.227C201.912 389.227 201.11 388.998 200.414 388.538C199.718 388.074 199.173 387.421 198.78 386.578C198.387 385.731 198.191 384.729 198.191 383.574C198.191 382.428 198.387 381.434 198.78 380.591C199.173 379.748 199.72 379.097 200.421 378.638C201.122 378.179 201.931 377.949 202.85 377.949C203.56 377.949 204.121 378.067 204.533 378.304C204.95 378.536 205.267 378.801 205.485 379.099C205.707 379.393 205.88 379.634 206.003 379.824H206.145V374.455H207.821V389H206.202V387.324H206.003C205.88 387.523 205.705 387.774 205.478 388.077C205.25 388.375 204.926 388.643 204.505 388.879C204.083 389.111 203.522 389.227 202.821 389.227ZM203.049 387.722C203.721 387.722 204.289 387.546 204.753 387.196C205.217 386.841 205.57 386.351 205.811 385.726C206.053 385.096 206.174 384.369 206.174 383.545C206.174 382.731 206.055 382.018 205.819 381.408C205.582 380.792 205.231 380.314 204.767 379.973C204.303 379.627 203.73 379.455 203.049 379.455C202.338 379.455 201.747 379.637 201.273 380.001C200.804 380.361 200.452 380.851 200.215 381.472C199.983 382.087 199.867 382.778 199.867 383.545C199.867 384.322 199.985 385.027 200.222 385.662C200.463 386.292 200.819 386.794 201.287 387.168C201.761 387.537 202.348 387.722 203.049 387.722ZM215.698 389.227C214.647 389.227 213.74 388.995 212.978 388.531C212.22 388.062 211.635 387.409 211.223 386.571C210.816 385.728 210.613 384.748 210.613 383.631C210.613 382.513 210.816 381.528 211.223 380.676C211.635 379.819 212.208 379.152 212.942 378.673C213.681 378.19 214.542 377.949 215.527 377.949C216.096 377.949 216.657 378.044 217.211 378.233C217.765 378.422 218.269 378.73 218.723 379.156C219.178 379.578 219.54 380.136 219.81 380.832C220.08 381.528 220.215 382.385 220.215 383.403V384.114H211.806V382.665H218.51C218.51 382.049 218.387 381.5 218.141 381.017C217.9 380.534 217.554 380.153 217.104 379.874C216.659 379.594 216.133 379.455 215.527 379.455C214.86 379.455 214.282 379.62 213.794 379.952C213.311 380.278 212.94 380.705 212.679 381.23C212.419 381.756 212.289 382.319 212.289 382.92V383.886C212.289 384.71 212.431 385.409 212.715 385.982C213.004 386.55 213.404 386.983 213.915 387.281C214.426 387.575 215.021 387.722 215.698 387.722C216.138 387.722 216.536 387.66 216.891 387.537C217.251 387.409 217.561 387.22 217.821 386.969C218.082 386.713 218.283 386.396 218.425 386.017L220.044 386.472C219.874 387.021 219.587 387.504 219.185 387.92C218.783 388.332 218.285 388.654 217.694 388.886C217.102 389.114 216.436 389.227 215.698 389.227Z" fill="#64748B"/>
<path d="M251 387C252.657 387 254 385.657 254 384C254 382.343 252.657 381 251 381C249.343 381 248 382.343 248 384C248 385.657 249.343 387 251 387Z" fill="#475569"/>
<path d="M281.761 389V374.455H283.523V387.438H290.284V389H281.761ZM292.784 389V378.091H294.46V389H292.784ZM293.636 376.273C293.31 376.273 293.028 376.161 292.791 375.939C292.559 375.716 292.443 375.449 292.443 375.136C292.443 374.824 292.559 374.556 292.791 374.334C293.028 374.111 293.31 374 293.636 374C293.963 374 294.242 374.111 294.474 374.334C294.711 374.556 294.83 374.824 294.83 375.136C294.83 375.449 294.711 375.716 294.474 375.939C294.242 376.161 293.963 376.273 293.636 376.273ZM299.206 382.438V389H297.53V378.091H299.15V379.795H299.292C299.547 379.241 299.935 378.796 300.456 378.46C300.977 378.119 301.65 377.949 302.473 377.949C303.212 377.949 303.858 378.1 304.412 378.403C304.966 378.702 305.397 379.156 305.705 379.767C306.013 380.373 306.167 381.14 306.167 382.068V389H304.49V382.182C304.49 381.325 304.268 380.657 303.823 380.179C303.378 379.696 302.767 379.455 301.99 379.455C301.455 379.455 300.977 379.571 300.556 379.803C300.139 380.035 299.81 380.373 299.569 380.818C299.327 381.263 299.206 381.803 299.206 382.438ZM316.104 384.54V378.091H317.781V389H316.104V387.153H315.991C315.735 387.707 315.337 388.179 314.798 388.567C314.258 388.95 313.576 389.142 312.752 389.142C312.07 389.142 311.464 388.993 310.934 388.695C310.404 388.392 309.987 387.937 309.684 387.331C309.381 386.72 309.229 385.951 309.229 385.023V378.091H310.906V384.909C310.906 385.705 311.128 386.339 311.573 386.812C312.023 387.286 312.596 387.523 313.292 387.523C313.709 387.523 314.132 387.416 314.563 387.203C314.999 386.99 315.363 386.663 315.657 386.223C315.955 385.783 316.104 385.222 316.104 384.54ZM322.1 378.091L324.714 382.551L327.328 378.091H329.26L325.737 383.545L329.26 389H327.328L324.714 384.767L322.1 389H320.169L323.635 383.545L320.169 378.091H322.1Z" fill="#64748B"/>
<path d="M356 387C357.657 387 359 385.657 359 384C359 382.343 357.657 381 356 381C354.343 381 353 382.343 353 384C353 385.657 354.343 387 356 387Z" fill="#475569"/>
<path d="M393.295 374.455V389H391.591L383.665 377.58H383.523V389H381.761V374.455H383.466L391.42 385.903H391.562V374.455H393.295ZM401.167 389.227C400.115 389.227 399.209 388.995 398.446 388.531C397.689 388.062 397.104 387.409 396.692 386.571C396.285 385.728 396.081 384.748 396.081 383.631C396.081 382.513 396.285 381.528 396.692 380.676C397.104 379.819 397.677 379.152 398.411 378.673C399.15 378.19 400.011 377.949 400.996 377.949C401.564 377.949 402.125 378.044 402.679 378.233C403.233 378.422 403.738 378.73 404.192 379.156C404.647 379.578 405.009 380.136 405.279 380.832C405.549 381.528 405.684 382.385 405.684 383.403V384.114H397.275V382.665H403.979C403.979 382.049 403.856 381.5 403.61 381.017C403.368 380.534 403.023 380.153 402.573 379.874C402.128 379.594 401.602 379.455 400.996 379.455C400.328 379.455 399.751 379.62 399.263 379.952C398.78 380.278 398.408 380.705 398.148 381.23C397.888 381.756 397.757 382.319 397.757 382.92V383.886C397.757 384.71 397.9 385.409 398.184 385.982C398.472 386.55 398.873 386.983 399.384 387.281C399.895 387.575 400.489 387.722 401.167 387.722C401.607 387.722 402.005 387.66 402.36 387.537C402.72 387.409 403.03 387.22 403.29 386.969C403.551 386.713 403.752 386.396 403.894 386.017L405.513 386.472C405.343 387.021 405.056 387.504 404.654 387.92C404.251 388.332 403.754 388.654 403.162 388.886C402.57 389.114 401.905 389.227 401.167 389.227ZM412.978 378.091V379.511H407.324V378.091H412.978ZM408.972 375.477H410.648V385.875C410.648 386.348 410.717 386.704 410.854 386.94C410.996 387.172 411.176 387.329 411.394 387.409C411.616 387.485 411.851 387.523 412.097 387.523C412.282 387.523 412.433 387.513 412.551 387.494C412.67 387.471 412.765 387.452 412.836 387.438L413.176 388.943C413.063 388.986 412.904 389.028 412.701 389.071C412.497 389.118 412.239 389.142 411.926 389.142C411.453 389.142 410.989 389.04 410.534 388.837C410.085 388.633 409.711 388.323 409.412 387.906C409.119 387.49 408.972 386.964 408.972 386.33V375.477ZM417.971 389L414.647 378.091H416.408L418.766 386.443H418.88L421.209 378.091H422.999L425.3 386.415H425.414L427.772 378.091H429.533L426.209 389H424.561L422.175 380.619H422.005L419.618 389H417.971ZM435.81 389.227C434.825 389.227 433.961 388.993 433.217 388.524C432.479 388.055 431.901 387.4 431.484 386.557C431.072 385.714 430.866 384.729 430.866 383.602C430.866 382.466 431.072 381.474 431.484 380.626C431.901 379.779 432.479 379.121 433.217 378.652C433.961 378.183 434.825 377.949 435.81 377.949C436.795 377.949 437.656 378.183 438.395 378.652C439.138 379.121 439.716 379.779 440.128 380.626C440.545 381.474 440.753 382.466 440.753 383.602C440.753 384.729 440.545 385.714 440.128 386.557C439.716 387.4 439.138 388.055 438.395 388.524C437.656 388.993 436.795 389.227 435.81 389.227ZM435.81 387.722C436.558 387.722 437.173 387.53 437.656 387.146C438.139 386.763 438.497 386.259 438.729 385.634C438.961 385.009 439.077 384.331 439.077 383.602C439.077 382.873 438.961 382.194 438.729 381.564C438.497 380.934 438.139 380.425 437.656 380.037C437.173 379.649 436.558 379.455 435.81 379.455C435.062 379.455 434.446 379.649 433.963 380.037C433.48 380.425 433.123 380.934 432.891 381.564C432.659 382.194 432.543 382.873 432.543 383.602C432.543 384.331 432.659 385.009 432.891 385.634C433.123 386.259 433.48 386.763 433.963 387.146C434.446 387.53 435.062 387.722 435.81 387.722ZM443.311 389V378.091H444.931V379.739H445.044C445.243 379.199 445.603 378.761 446.124 378.425C446.645 378.089 447.232 377.92 447.885 377.92C448.008 377.92 448.162 377.923 448.347 377.928C448.532 377.932 448.671 377.939 448.766 377.949V379.653C448.709 379.639 448.579 379.618 448.375 379.589C448.176 379.556 447.966 379.54 447.743 379.54C447.213 379.54 446.739 379.651 446.323 379.874C445.911 380.091 445.584 380.394 445.343 380.783C445.106 381.166 444.988 381.604 444.988 382.097V389H443.311ZM452.315 385.023L452.287 382.949H452.628L457.401 378.091H459.474L454.389 383.233H454.247L452.315 385.023ZM450.753 389V374.455H452.429V389H450.753ZM457.685 389L453.423 383.602L454.616 382.438L459.815 389H457.685ZM477.029 374.455H478.791V384.085C478.791 385.08 478.556 385.967 478.088 386.749C477.624 387.525 476.968 388.138 476.12 388.588C475.273 389.033 474.279 389.256 473.137 389.256C471.996 389.256 471.002 389.033 470.154 388.588C469.307 388.138 468.649 387.525 468.18 386.749C467.716 385.967 467.484 385.08 467.484 384.085V374.455H469.245V383.943C469.245 384.653 469.402 385.286 469.714 385.839C470.027 386.389 470.472 386.822 471.049 387.139C471.632 387.452 472.328 387.608 473.137 387.608C473.947 387.608 474.643 387.452 475.225 387.139C475.808 386.822 476.253 386.389 476.561 385.839C476.873 385.286 477.029 384.653 477.029 383.943V374.455ZM482.308 389V374.455H487.223C488.364 374.455 489.297 374.661 490.021 375.072C490.75 375.48 491.29 376.031 491.641 376.727C491.991 377.423 492.166 378.2 492.166 379.057C492.166 379.914 491.991 380.693 491.641 381.393C491.295 382.094 490.76 382.653 490.036 383.07C489.311 383.482 488.383 383.688 487.251 383.688H483.729V382.125H487.195C487.976 382.125 488.603 381.99 489.077 381.72C489.55 381.45 489.893 381.086 490.107 380.626C490.324 380.162 490.433 379.639 490.433 379.057C490.433 378.474 490.324 377.954 490.107 377.494C489.893 377.035 489.548 376.675 489.07 376.415C488.591 376.15 487.957 376.017 487.166 376.017H484.07V389H482.308ZM502.958 378.091C502.873 377.371 502.527 376.812 501.921 376.415C501.315 376.017 500.572 375.818 499.691 375.818C499.047 375.818 498.484 375.922 498.001 376.131C497.522 376.339 497.148 376.625 496.879 376.99C496.613 377.355 496.481 377.769 496.481 378.233C496.481 378.621 496.573 378.955 496.758 379.234C496.947 379.509 497.189 379.739 497.482 379.923C497.776 380.103 498.084 380.252 498.406 380.371C498.728 380.484 499.023 380.577 499.293 380.648L500.771 381.045C501.149 381.145 501.571 381.282 502.035 381.457C502.504 381.633 502.951 381.872 503.377 382.175C503.808 382.473 504.163 382.857 504.442 383.325C504.722 383.794 504.862 384.369 504.862 385.051C504.862 385.837 504.656 386.547 504.244 387.182C503.836 387.816 503.24 388.321 502.454 388.695C501.673 389.069 500.723 389.256 499.606 389.256C498.564 389.256 497.662 389.088 496.9 388.751C496.142 388.415 495.546 387.946 495.11 387.345C494.679 386.744 494.435 386.045 494.379 385.25H496.197C496.244 385.799 496.429 386.254 496.751 386.614C497.077 386.969 497.489 387.234 497.987 387.409C498.488 387.58 499.028 387.665 499.606 387.665C500.278 387.665 500.882 387.556 501.417 387.338C501.952 387.116 502.376 386.808 502.688 386.415C503.001 386.017 503.157 385.553 503.157 385.023C503.157 384.54 503.022 384.147 502.752 383.844C502.482 383.541 502.127 383.295 501.687 383.105C501.246 382.916 500.771 382.75 500.259 382.608L498.469 382.097C497.333 381.77 496.433 381.304 495.771 380.697C495.108 380.091 494.776 379.298 494.776 378.318C494.776 377.504 494.996 376.794 495.437 376.188C495.882 375.577 496.478 375.103 497.227 374.767C497.979 374.426 498.82 374.256 499.748 374.256C500.685 374.256 501.519 374.424 502.248 374.76C502.977 375.091 503.555 375.546 503.981 376.124C504.412 376.701 504.639 377.357 504.663 378.091H502.958ZM512.587 376.017V374.455H523.496V376.017H518.922V389H517.161V376.017H512.587ZM528.837 389.227C527.852 389.227 526.988 388.993 526.245 388.524C525.506 388.055 524.928 387.4 524.512 386.557C524.1 385.714 523.894 384.729 523.894 383.602C523.894 382.466 524.1 381.474 524.512 380.626C524.928 379.779 525.506 379.121 526.245 378.652C526.988 378.183 527.852 377.949 528.837 377.949C529.822 377.949 530.684 378.183 531.422 378.652C532.166 379.121 532.743 379.779 533.155 380.626C533.572 381.474 533.78 382.466 533.78 383.602C533.78 384.729 533.572 385.714 533.155 386.557C532.743 387.4 532.166 388.055 531.422 388.524C530.684 388.993 529.822 389.227 528.837 389.227ZM528.837 387.722C529.585 387.722 530.201 387.53 530.684 387.146C531.167 386.763 531.524 386.259 531.756 385.634C531.988 385.009 532.104 384.331 532.104 383.602C532.104 382.873 531.988 382.194 531.756 381.564C531.524 380.934 531.167 380.425 530.684 380.037C530.201 379.649 529.585 379.455 528.837 379.455C528.089 379.455 527.473 379.649 526.99 380.037C526.507 380.425 526.15 380.934 525.918 381.564C525.686 382.194 525.57 382.873 525.57 383.602C525.57 384.331 525.686 385.009 525.918 385.634C526.15 386.259 526.507 386.763 526.99 387.146C527.473 387.53 528.089 387.722 528.837 387.722ZM540.771 389.227C539.786 389.227 538.922 388.993 538.178 388.524C537.44 388.055 536.862 387.4 536.445 386.557C536.033 385.714 535.827 384.729 535.827 383.602C535.827 382.466 536.033 381.474 536.445 380.626C536.862 379.779 537.44 379.121 538.178 378.652C538.922 378.183 539.786 377.949 540.771 377.949C541.755 377.949 542.617 378.183 543.356 378.652C544.099 379.121 544.677 379.779 545.089 380.626C545.505 381.474 545.714 382.466 545.714 383.602C545.714 384.729 545.505 385.714 545.089 386.557C544.677 387.4 544.099 388.055 543.356 388.524C542.617 388.993 541.755 389.227 540.771 389.227ZM540.771 387.722C541.519 387.722 542.134 387.53 542.617 387.146C543.1 386.763 543.458 386.259 543.69 385.634C543.922 385.009 544.038 384.331 544.038 383.602C544.038 382.873 543.922 382.194 543.69 381.564C543.458 380.934 543.1 380.425 542.617 380.037C542.134 379.649 541.519 379.455 540.771 379.455C540.022 379.455 539.407 379.649 538.924 380.037C538.441 380.425 538.084 380.934 537.852 381.564C537.62 382.194 537.504 382.873 537.504 383.602C537.504 384.331 537.62 385.009 537.852 385.634C538.084 386.259 538.441 386.763 538.924 387.146C539.407 387.53 540.022 387.722 540.771 387.722ZM549.949 374.455V389H548.272V374.455H549.949ZM560.746 380.534L559.24 380.96C559.145 380.709 559.006 380.465 558.821 380.229C558.641 379.987 558.395 379.788 558.082 379.632C557.77 379.476 557.37 379.398 556.882 379.398C556.214 379.398 555.658 379.552 555.213 379.859C554.773 380.162 554.553 380.548 554.553 381.017C554.553 381.434 554.704 381.763 555.007 382.004C555.31 382.246 555.784 382.447 556.428 382.608L558.047 383.006C559.022 383.242 559.749 383.605 560.227 384.092C560.705 384.575 560.945 385.198 560.945 385.96C560.945 386.585 560.765 387.144 560.405 387.636C560.05 388.129 559.553 388.517 558.913 388.801C558.274 389.085 557.531 389.227 556.683 389.227C555.571 389.227 554.65 388.986 553.92 388.503C553.191 388.02 552.73 387.314 552.536 386.386L554.126 385.989C554.278 386.576 554.564 387.016 554.986 387.31C555.412 387.603 555.968 387.75 556.655 387.75C557.436 387.75 558.056 387.584 558.516 387.253C558.98 386.917 559.212 386.514 559.212 386.045C559.212 385.667 559.079 385.349 558.814 385.094C558.549 384.833 558.142 384.639 557.592 384.511L555.774 384.085C554.775 383.848 554.041 383.482 553.572 382.984C553.108 382.482 552.876 381.855 552.876 381.102C552.876 380.487 553.049 379.942 553.395 379.469C553.745 378.995 554.221 378.624 554.822 378.354C555.429 378.084 556.115 377.949 556.882 377.949C557.962 377.949 558.809 378.186 559.425 378.659C560.045 379.133 560.485 379.758 560.746 380.534Z" fill="#64748B"/>
<path d="M586 387C587.657 387 589 385.657 589 384C589 382.343 587.657 381 586 381C584.343 381 583 382.343 583 384C583 385.657 584.343 387 586 387Z" fill="#475569"/>
<path d="M616.25 389H611.761V374.455H616.449C617.86 374.455 619.067 374.746 620.071 375.328C621.075 375.906 621.844 376.737 622.379 377.821C622.914 378.901 623.182 380.193 623.182 381.699C623.182 383.214 622.912 384.518 622.372 385.612C621.832 386.701 621.046 387.539 620.014 388.126C618.982 388.709 617.727 389 616.25 389ZM613.523 387.438H616.136C617.339 387.438 618.336 387.205 619.126 386.741C619.917 386.277 620.507 385.617 620.895 384.76C621.283 383.903 621.477 382.883 621.477 381.699C621.477 380.525 621.286 379.514 620.902 378.666C620.518 377.814 619.946 377.161 619.183 376.706C618.421 376.247 617.472 376.017 616.335 376.017H613.523V387.438ZM629.119 389.256C628.428 389.256 627.801 389.125 627.237 388.865C626.674 388.6 626.226 388.219 625.895 387.722C625.563 387.22 625.398 386.614 625.398 385.903C625.398 385.278 625.521 384.772 625.767 384.384C626.013 383.991 626.342 383.683 626.754 383.46C627.166 383.238 627.621 383.072 628.118 382.963C628.62 382.849 629.124 382.759 629.631 382.693C630.294 382.608 630.831 382.544 631.243 382.501C631.66 382.454 631.963 382.376 632.152 382.267C632.346 382.158 632.443 381.969 632.443 381.699V381.642C632.443 380.941 632.251 380.397 631.868 380.009C631.489 379.62 630.914 379.426 630.142 379.426C629.342 379.426 628.714 379.601 628.26 379.952C627.805 380.302 627.486 380.676 627.301 381.074L625.71 380.506C625.994 379.843 626.373 379.327 626.847 378.957C627.325 378.583 627.846 378.323 628.409 378.176C628.977 378.025 629.536 377.949 630.085 377.949C630.436 377.949 630.838 377.991 631.293 378.077C631.752 378.157 632.195 378.325 632.621 378.581C633.052 378.837 633.409 379.223 633.693 379.739C633.977 380.255 634.119 380.946 634.119 381.812V389H632.443V387.523H632.358C632.244 387.759 632.055 388.013 631.79 388.283C631.525 388.553 631.172 388.782 630.732 388.972C630.291 389.161 629.754 389.256 629.119 389.256ZM629.375 387.75C630.038 387.75 630.597 387.62 631.051 387.359C631.51 387.099 631.856 386.763 632.088 386.351C632.325 385.939 632.443 385.506 632.443 385.051V383.517C632.372 383.602 632.216 383.68 631.974 383.751C631.738 383.818 631.463 383.877 631.151 383.929C630.843 383.976 630.542 384.019 630.249 384.057C629.96 384.09 629.725 384.118 629.545 384.142C629.11 384.199 628.703 384.291 628.324 384.419C627.95 384.542 627.647 384.729 627.415 384.98C627.188 385.226 627.074 385.562 627.074 385.989C627.074 386.571 627.289 387.011 627.72 387.31C628.156 387.603 628.707 387.75 629.375 387.75ZM644.906 380.534L643.4 380.96C643.306 380.709 643.166 380.465 642.981 380.229C642.801 379.987 642.555 379.788 642.243 379.632C641.93 379.476 641.53 379.398 641.042 379.398C640.375 379.398 639.818 379.552 639.373 379.859C638.933 380.162 638.713 380.548 638.713 381.017C638.713 381.434 638.864 381.763 639.167 382.004C639.47 382.246 639.944 382.447 640.588 382.608L642.207 383.006C643.182 383.242 643.909 383.605 644.387 384.092C644.866 384.575 645.105 385.198 645.105 385.96C645.105 386.585 644.925 387.144 644.565 387.636C644.21 388.129 643.713 388.517 643.074 388.801C642.434 389.085 641.691 389.227 640.843 389.227C639.731 389.227 638.81 388.986 638.081 388.503C637.351 388.02 636.89 387.314 636.696 386.386L638.287 385.989C638.438 386.576 638.725 387.016 639.146 387.31C639.572 387.603 640.128 387.75 640.815 387.75C641.596 387.75 642.217 387.584 642.676 387.253C643.14 386.917 643.372 386.514 643.372 386.045C643.372 385.667 643.239 385.349 642.974 385.094C642.709 384.833 642.302 384.639 641.752 384.511L639.934 384.085C638.935 383.848 638.201 383.482 637.733 382.984C637.269 382.482 637.037 381.855 637.037 381.102C637.037 380.487 637.209 379.942 637.555 379.469C637.905 378.995 638.381 378.624 638.983 378.354C639.589 378.084 640.275 377.949 641.042 377.949C642.122 377.949 642.969 378.186 643.585 378.659C644.205 379.133 644.645 379.758 644.906 380.534ZM649.304 382.438V389H647.628V374.455H649.304V379.795H649.446C649.702 379.232 650.085 378.785 650.597 378.453C651.113 378.117 651.799 377.949 652.656 377.949C653.4 377.949 654.051 378.098 654.609 378.396C655.168 378.69 655.601 379.142 655.909 379.753C656.222 380.359 656.378 381.131 656.378 382.068V389H654.702V382.182C654.702 381.315 654.477 380.645 654.027 380.172C653.582 379.694 652.964 379.455 652.173 379.455C651.624 379.455 651.132 379.571 650.696 379.803C650.265 380.035 649.924 380.373 649.673 380.818C649.427 381.263 649.304 381.803 649.304 382.438ZM659.672 389V374.455H661.348V379.824H661.49C661.613 379.634 661.783 379.393 662.001 379.099C662.224 378.801 662.541 378.536 662.953 378.304C663.369 378.067 663.933 377.949 664.643 377.949C665.562 377.949 666.371 378.179 667.072 378.638C667.773 379.097 668.32 379.748 668.713 380.591C669.106 381.434 669.302 382.428 669.302 383.574C669.302 384.729 669.106 385.731 668.713 386.578C668.32 387.421 667.775 388.074 667.079 388.538C666.383 388.998 665.581 389.227 664.672 389.227C663.971 389.227 663.41 389.111 662.988 388.879C662.567 388.643 662.243 388.375 662.015 388.077C661.788 387.774 661.613 387.523 661.49 387.324H661.291V389H659.672ZM661.319 383.545C661.319 384.369 661.44 385.096 661.681 385.726C661.923 386.351 662.276 386.841 662.74 387.196C663.204 387.546 663.772 387.722 664.444 387.722C665.145 387.722 665.73 387.537 666.199 387.168C666.672 386.794 667.027 386.292 667.264 385.662C667.505 385.027 667.626 384.322 667.626 383.545C667.626 382.778 667.508 382.087 667.271 381.472C667.039 380.851 666.686 380.361 666.213 380.001C665.744 379.637 665.154 379.455 664.444 379.455C663.762 379.455 663.19 379.627 662.725 379.973C662.261 380.314 661.911 380.792 661.674 381.408C661.438 382.018 661.319 382.731 661.319 383.545ZM676.298 389.227C675.313 389.227 674.449 388.993 673.706 388.524C672.967 388.055 672.389 387.4 671.973 386.557C671.561 385.714 671.355 384.729 671.355 383.602C671.355 382.466 671.561 381.474 671.973 380.626C672.389 379.779 672.967 379.121 673.706 378.652C674.449 378.183 675.313 377.949 676.298 377.949C677.283 377.949 678.145 378.183 678.883 378.652C679.627 379.121 680.204 379.779 680.616 380.626C681.033 381.474 681.241 382.466 681.241 383.602C681.241 384.729 681.033 385.714 680.616 386.557C680.204 387.4 679.627 388.055 678.883 388.524C678.145 388.993 677.283 389.227 676.298 389.227ZM676.298 387.722C677.046 387.722 677.662 387.53 678.145 387.146C678.627 386.763 678.985 386.259 679.217 385.634C679.449 385.009 679.565 384.331 679.565 383.602C679.565 382.873 679.449 382.194 679.217 381.564C678.985 380.934 678.627 380.425 678.145 380.037C677.662 379.649 677.046 379.455 676.298 379.455C675.55 379.455 674.934 379.649 674.451 380.037C673.968 380.425 673.611 380.934 673.379 381.564C673.147 382.194 673.031 382.873 673.031 383.602C673.031 384.331 673.147 385.009 673.379 385.634C673.611 386.259 673.968 386.763 674.451 387.146C674.934 387.53 675.55 387.722 676.298 387.722ZM687.01 389.256C686.319 389.256 685.691 389.125 685.128 388.865C684.564 388.6 684.117 388.219 683.786 387.722C683.454 387.22 683.288 386.614 683.288 385.903C683.288 385.278 683.411 384.772 683.658 384.384C683.904 383.991 684.233 383.683 684.645 383.46C685.057 383.238 685.511 383.072 686.009 382.963C686.51 382.849 687.015 382.759 687.521 382.693C688.184 382.608 688.722 382.544 689.134 382.501C689.55 382.454 689.853 382.376 690.043 382.267C690.237 382.158 690.334 381.969 690.334 381.699V381.642C690.334 380.941 690.142 380.397 689.759 380.009C689.38 379.62 688.804 379.426 688.033 379.426C687.232 379.426 686.605 379.601 686.151 379.952C685.696 380.302 685.376 380.676 685.192 381.074L683.601 380.506C683.885 379.843 684.264 379.327 684.737 378.957C685.215 378.583 685.736 378.323 686.3 378.176C686.868 378.025 687.427 377.949 687.976 377.949C688.326 377.949 688.729 377.991 689.183 378.077C689.643 378.157 690.085 378.325 690.511 378.581C690.942 378.837 691.3 379.223 691.584 379.739C691.868 380.255 692.01 380.946 692.01 381.812V389H690.334V387.523H690.249C690.135 387.759 689.946 388.013 689.68 388.283C689.415 388.553 689.063 388.782 688.622 388.972C688.182 389.161 687.644 389.256 687.01 389.256ZM687.266 387.75C687.929 387.75 688.487 387.62 688.942 387.359C689.401 387.099 689.747 386.763 689.979 386.351C690.215 385.939 690.334 385.506 690.334 385.051V383.517C690.263 383.602 690.107 383.68 689.865 383.751C689.628 383.818 689.354 383.877 689.041 383.929C688.733 383.976 688.433 384.019 688.139 384.057C687.85 384.09 687.616 384.118 687.436 384.142C687 384.199 686.593 384.291 686.214 384.419C685.84 384.542 685.537 384.729 685.305 384.98C685.078 385.226 684.964 385.562 684.964 385.989C684.964 386.571 685.18 387.011 685.611 387.31C686.046 387.603 686.598 387.75 687.266 387.75ZM695.069 389V378.091H696.689V379.739H696.802C697.001 379.199 697.361 378.761 697.882 378.425C698.403 378.089 698.99 377.92 699.643 377.92C699.766 377.92 699.92 377.923 700.105 377.928C700.289 377.932 700.429 377.939 700.524 377.949V379.653C700.467 379.639 700.337 379.618 700.133 379.589C699.934 379.556 699.724 379.54 699.501 379.54C698.971 379.54 698.497 379.651 698.081 379.874C697.669 380.091 697.342 380.394 697.1 380.783C696.864 381.166 696.745 381.604 696.745 382.097V389H695.069ZM706.298 389.227C705.389 389.227 704.586 388.998 703.89 388.538C703.194 388.074 702.65 387.421 702.257 386.578C701.864 385.731 701.667 384.729 701.667 383.574C701.667 382.428 701.864 381.434 702.257 380.591C702.65 379.748 703.197 379.097 703.897 378.638C704.598 378.179 705.408 377.949 706.326 377.949C707.037 377.949 707.598 378.067 708.01 378.304C708.426 378.536 708.743 378.801 708.961 379.099C709.184 379.393 709.357 379.634 709.48 379.824H709.622V374.455H711.298V389H709.679V387.324H709.48C709.357 387.523 709.181 387.774 708.954 388.077C708.727 388.375 708.403 388.643 707.981 388.879C707.56 389.111 706.999 389.227 706.298 389.227ZM706.525 387.722C707.198 387.722 707.766 387.546 708.23 387.196C708.694 386.841 709.047 386.351 709.288 385.726C709.529 385.096 709.65 384.369 709.65 383.545C709.65 382.731 709.532 382.018 709.295 381.408C709.058 380.792 708.708 380.314 708.244 379.973C707.78 379.627 707.207 379.455 706.525 379.455C705.815 379.455 705.223 379.637 704.75 380.001C704.281 380.361 703.928 380.851 703.691 381.472C703.459 382.087 703.343 382.778 703.343 383.545C703.343 384.322 703.462 385.027 703.699 385.662C703.94 386.292 704.295 386.794 704.764 387.168C705.237 387.537 705.824 387.722 706.525 387.722Z" fill="#64748B"/>
<path d="M1200 40H1240V80" stroke="#1E293B" stroke-width="2"/>
<path d="M1240 360V400H1200" stroke="#1E293B" stroke-width="2"/>
</g>
<defs>
<clipPath id="clip0_1_2">
<rect width="1280" height="440" fill="white"/>
</clipPath>
</defs>
</svg>
